name rise30.9205peak61.366fall85.3838.mot
datacolumns 19
datarows 24
range 11.51662000000000 11.55496200000000
endheader
time	ground_force1_vx	ground_force1_vy	ground_force1_vz	ground_force1_px	ground_force1_py	ground_force1_pz	ground_force2_vx	ground_force2_vy	ground_force2_vz	ground_force2_px	ground_force2_py	ground_force2_pz	ground_torque1_x	ground_torque1_y	ground_torque1_z	ground_torque2_x	ground_torque2_y	ground_torque2_z	
11.51662000000000	63.44655600000000	773.73920099999998	53.30606300000000	0.34890000000000	0.00000000000000	0.11838900000000	0.00000000000000	0.00000000000000	0.00000000000000	0.00000000000000	0.00000000000000	0.00000000000000	0.00000000000000	21.58834100000000	0.00000000000000	0.00000000000000	0.00000000000000	0.00000000000000	
11.51829000000000	62.82132200000000	776.39135299999998	53.36783600000000	0.34785600000000	0.00000000000000	0.11835300000000	0.00000000000000	0.00000000000000	0.00000000000000	0.00000000000000	0.00000000000000	0.00000000000000	0.00000000000000	21.63448500000000	0.00000000000000	0.00000000000000	0.00000000000000	0.00000000000000	
11.51996000000000	62.19859100000000	778.93001900000002	53.42846000000000	0.34684500000000	0.00000000000000	0.11831600000000	0.00000000000000	0.00000000000000	0.00000000000000	0.00000000000000	0.00000000000000	0.00000000000000	0.00000000000000	21.68184700000000	0.00000000000000	0.00000000000000	0.00000000000000	0.00000000000000	
11.52163100000000	61.57858500000000	781.35306000000003	53.48771000000000	0.34586700000000	0.00000000000000	0.11827900000000	0.00000000000000	0.00000000000000	0.00000000000000	0.00000000000000	0.00000000000000	0.00000000000000	0.00000000000000	21.73026300000000	0.00000000000000	0.00000000000000	0.00000000000000	0.00000000000000	
11.52329700000000	60.96145900000000	783.65842999999995	53.54530200000000	0.34492000000000	0.00000000000000	0.11824100000000	0.00000000000000	0.00000000000000	0.00000000000000	0.00000000000000	0.00000000000000	0.00000000000000	0.00000000000000	21.77952900000000	0.00000000000000	0.00000000000000	0.00000000000000	0.00000000000000	
11.52495500000000	60.34730200000000	785.84418700000003	53.60090300000000	0.34400400000000	0.00000000000000	0.11820300000000	0.00000000000000	0.00000000000000	0.00000000000000	0.00000000000000	0.00000000000000	0.00000000000000	0.00000000000000	21.82940900000000	0.00000000000000	0.00000000000000	0.00000000000000	0.00000000000000	
11.52662600000000	59.73614400000000	787.90850999999998	53.65413200000000	0.34311600000000	0.00000000000000	0.11816500000000	0.00000000000000	0.00000000000000	0.00000000000000	0.00000000000000	0.00000000000000	0.00000000000000	0.00000000000000	21.87963400000000	0.00000000000000	0.00000000000000	0.00000000000000	0.00000000000000	
11.52829200000000	59.12795900000000	789.84970899999996	53.70456400000000	0.34225600000000	0.00000000000000	0.11812600000000	0.00000000000000	0.00000000000000	0.00000000000000	0.00000000000000	0.00000000000000	0.00000000000000	0.00000000000000	21.92990700000000	0.00000000000000	0.00000000000000	0.00000000000000	0.00000000000000	
11.52995600000000	58.52266700000000	791.66624000000002	53.75173700000000	0.34142100000000	0.00000000000000	0.11808700000000	0.00000000000000	0.00000000000000	0.00000000000000	0.00000000000000	0.00000000000000	0.00000000000000	0.00000000000000	21.97990300000000	0.00000000000000	0.00000000000000	0.00000000000000	0.00000000000000	
11.53165800000000	57.92014200000000	793.35671200000002	53.79516000000000	0.34060900000000	0.00000000000000	0.11804800000000	0.00000000000000	0.00000000000000	0.00000000000000	0.00000000000000	0.00000000000000	0.00000000000000	0.00000000000000	22.02927500000000	0.00000000000000	0.00000000000000	0.00000000000000	0.00000000000000	
11.53331000000000	57.32021600000000	794.91989999999998	53.83431100000000	0.33982000000000	0.00000000000000	0.11800800000000	0.00000000000000	0.00000000000000	0.00000000000000	0.00000000000000	0.00000000000000	0.00000000000000	0.00000000000000	22.07765600000000	0.00000000000000	0.00000000000000	0.00000000000000	0.00000000000000	
11.53495400000000	56.72268100000000	796.35475499999995	53.86865000000000	0.33905000000000	0.00000000000000	0.11796900000000	0.00000000000000	0.00000000000000	0.00000000000000	0.00000000000000	0.00000000000000	0.00000000000000	0.00000000000000	22.12466400000000	0.00000000000000	0.00000000000000	0.00000000000000	0.00000000000000	
11.53665200000000	56.12729800000000	797.66041099999995	53.89761900000000	0.33829900000000	0.00000000000000	0.11792900000000	0.00000000000000	0.00000000000000	0.00000000000000	0.00000000000000	0.00000000000000	0.00000000000000	0.00000000000000	22.16990000000000	0.00000000000000	0.00000000000000	0.00000000000000	0.00000000000000	
11.53829500000000	55.53379800000000	798.83619499999998	53.92065200000000	0.33756300000000	0.00000000000000	0.11788800000000	0.00000000000000	0.00000000000000	0.00000000000000	0.00000000000000	0.00000000000000	0.00000000000000	0.00000000000000	22.21296000000000	0.00000000000000	0.00000000000000	0.00000000000000	0.00000000000000	
11.53996100000000	54.94189000000000	799.88163099999997	53.93717700000000	0.33684100000000	0.00000000000000	0.11784800000000	0.00000000000000	0.00000000000000	0.00000000000000	0.00000000000000	0.00000000000000	0.00000000000000	0.00000000000000	22.25342900000000	0.00000000000000	0.00000000000000	0.00000000000000	0.00000000000000	
11.54163800000000	54.35126200000000	800.79645100000005	53.94662200000000	0.33613000000000	0.00000000000000	0.11780700000000	0.00000000000000	0.00000000000000	0.00000000000000	0.00000000000000	0.00000000000000	0.00000000000000	0.00000000000000	22.29089200000000	0.00000000000000	0.00000000000000	0.00000000000000	0.00000000000000	
11.54329200000000	53.76159100000000	801.58059400000002	53.94842400000000	0.33542900000000	0.00000000000000	0.11776600000000	0.00000000000000	0.00000000000000	0.00000000000000	0.00000000000000	0.00000000000000	0.00000000000000	0.00000000000000	22.32493300000000	0.00000000000000	0.00000000000000	0.00000000000000	0.00000000000000	
11.54495600000000	53.17254200000000	802.23421299999995	53.94202900000000	0.33473400000000	0.00000000000000	0.11772500000000	0.00000000000000	0.00000000000000	0.00000000000000	0.00000000000000	0.00000000000000	0.00000000000000	0.00000000000000	22.35513900000000	0.00000000000000	0.00000000000000	0.00000000000000	0.00000000000000	
11.54663700000000	52.58377600000000	802.75768000000005	53.92690000000000	0.33404400000000	0.00000000000000	0.11768300000000	0.00000000000000	0.00000000000000	0.00000000000000	0.00000000000000	0.00000000000000	0.00000000000000	0.00000000000000	22.38110300000000	0.00000000000000	0.00000000000000	0.00000000000000	0.00000000000000	
11.54828700000000	51.99495500000000	803.15158299999996	53.90252200000000	0.33335700000000	0.00000000000000	0.11764200000000	0.00000000000000	0.00000000000000	0.00000000000000	0.00000000000000	0.00000000000000	0.00000000000000	0.00000000000000	22.40243100000000	0.00000000000000	0.00000000000000	0.00000000000000	0.00000000000000	
11.54995700000000	51.40574200000000	803.41673300000002	53.86840600000000	0.33267000000000	0.00000000000000	0.11760000000000	0.00000000000000	0.00000000000000	0.00000000000000	0.00000000000000	0.00000000000000	0.00000000000000	0.00000000000000	22.41874000000000	0.00000000000000	0.00000000000000	0.00000000000000	0.00000000000000	
11.55163700000000	50.81580900000000	803.55415700000003	53.82409200000000	0.33198100000000	0.00000000000000	0.11755900000000	0.00000000000000	0.00000000000000	0.00000000000000	0.00000000000000	0.00000000000000	0.00000000000000	0.00000000000000	22.42966200000000	0.00000000000000	0.00000000000000	0.00000000000000	0.00000000000000	
11.55328800000000	50.22483900000000	803.56510500000002	53.76915800000000	0.33128700000000	0.00000000000000	0.11751700000000	0.00000000000000	0.00000000000000	0.00000000000000	0.00000000000000	0.00000000000000	0.00000000000000	0.00000000000000	22.43484900000000	0.00000000000000	0.00000000000000	0.00000000000000	0.00000000000000	
11.55496200000000	49.63253000000000	803.45104200000003	53.70321600000000	0.33058700000000	0.00000000000000	0.11747500000000	0.00000000000000	0.00000000000000	0.00000000000000	0.00000000000000	0.00000000000000	0.00000000000000	0.00000000000000	22.43397400000000	0.00000000000000	0.00000000000000	0.00000000000000	0.00000000000000	
